<?xml version="1.0" encoding="utf-8"?>
<!-- Designed by Vexels.com - 2017 All Rights Reserved - https://vexels.com/terms-and-conditions/  -->

<svg version="1.1" id="Layer_1" xmlns="http://www.w3.org/2000/svg" xmlns:xlink="http://www.w3.org/1999/xlink" x="0px" y="0px"
	 width="1200px" height="1200px" viewBox="0 0 1200 1200" enable-background="new 0 0 1200 1200" xml:space="preserve">
<path fill="#282727" d="M288.199,655.338c0,0-66.288-5.563-67.403-45.113c0,0-1.115-11.7,7.798-24.52
	c0,0,11.694-15.039-6.127-31.182c0,0-2.782-33.986,29.526-21.728l2.22-2.235c0,0-28.627-19.325-24.362-33.533
	c0,0,9.002-9.007,14.219-22.743c0,0,3.791-9.481-12.794-20.855c0,0-22.28-22.264-9.013-37.43c0,0,5.217-10.428,31.288-18.011
	c0,0,16.101-8.05,27.47-18.956c0,0,15.17-12.311,24.646-19.898c0,0,3.318-3.313,5.217-8.997c0,0-15.165-6.641-6.158-18.952
	c0,0,4.259,12.789,9.939,8.046c0,0-0.936-23.216-9.939-28.438c0,0-8.061-10.895,4.259-12.789c0,0,34.59-58.757,40.28-65.862
	c0,0,39.322-55.45,76.284-63.496c0,0-37.904-37.903,2.366-54.966c0,0-17.053,26.061,2.85,27.476c0,0,0-52.117,67.282-68.696
	c67.287-16.58,92.402-7.12,101.882-5.689c0,0-49.287-25.115-95.24-9.471c0,0,40.748-21.807,103.775,9.954
	c0,0,80.071,14.687,111.353,58.742c0,0,24.636,0.956,62.538,52.132c0,0,21.329,27.476,36.961,27.959
	c15.645,0.473,28.906,3.313,30.331,15.16c1.42,11.847,6.626,29.373-4.27,34.117c0,0,10.428,0,20.85-21.807
	c0,0,14.219-29.374,40.285-13.268c0,0-22.748-10.416-37.908,15.165c0,0-7.115,16.117-17.064,22.748c0,0,18,6.158,22.27,10.891
	c0,0,14.219-11.375,41.221,0.956c0,0,14.224,8.535,33.181-1.419c0,0-11.375,12.794-34.117,4.733c0,0-18.015-3.792-9.007,9.954
	c0,0,67.287,40.742,44.06,101.404c0,0,37.913,7.099,32.224,34.59c0,0-1.415-23.695-32.224-26.534c0,0,0.957,10.896-0.936,14.214
	c0,0,59.226,58.757-5.689,112.777c0,0,42.162-43.125,10.895-76.768c0,0,11.842,67.76-41.7,90.041c0,0-12.794,10.895-17.537,6.147
	c0,0-0.936,46.921-15.628,55.923c0,0,91.928,73.445,24.168,128.896c0,0,60.645-48.819-29.385-122.265
	c0,0-1.898,56.387-38.375,69.192c0,0,31.75-15.645,28.895-61.608c0,0-2.367,10.91-16.101,11.846c0,0,2.361,23.222-12.326,30.332
	c0,0-14.692,102.812-113.246,82.92c0,0,35.064,45.491,73.444-1.42c0,0-15.633,36.01-60.651,29.374c0,0-3.786,24.162,23.689,33.638
	c27.485,9.481,80.086,20.393,97.139,59.715c0,0,14.693,25.582,2.366,82.448c0,0,22.275-94.773-75.338-86.233
	c0,0,72.504,52.116,96.661,115.144c24.163,63.016,24.647,75.816,32.224,101.404c7.583,25.577,18.011,81.505,18.011,81.505H385.274
	c0,0,32.224-43.119,43.598-80.57c11.368-37.43,18.956-80.065,23.689-87.659c4.737-7.583,12.789-16.112,13.267-38.849
	c0.473-22.737,3.318-53.068-4.265-64.921c0,0-24.173-1.419-14.693,33.16c0,0-14.213-21.791,10.901-39.796
	c0,0-19.425-39.796-27.48-53.542c-8.061-13.746-15.639-44.077-20.855-50.702c-5.206-6.642-18.479-33.654-20.85-51.654
	c-2.361-18-10.895-52.116-33.643-56.865C354.944,658.603,341.798,652.557,288.199,655.338z"/>
</svg>
